<?xml version="1.0" standalone="no"?><svg xmlns="http://www.w3.org/2000/svg" viewBox="0 0 1440 320"><path fill="#fff" fill-opacity="1" d="M0,64L26.7,64C53.3,64,107,64,160,85.3C213.3,107,267,149,320,154.7C373.3,160,427,128,480,112C533.3,96,587,96,640,85.3C693.3,75,747,53,800,69.3C853.3,85,907,139,960,149.3C1013.3,160,1067,128,1120,122.7C1173.3,117,1227,139,1280,128C1333.3,117,1387,75,1413,53.3L1440,32L1440,320L1413.3,320C1386.7,320,1333,320,1280,320C1226.7,320,1173,320,1120,320C1066.7,320,1013,320,960,320C906.7,320,853,320,800,320C746.7,320,693,320,640,320C586.7,320,533,320,480,320C426.7,320,373,320,320,320C266.7,320,213,320,160,320C106.7,320,53,320,27,320L0,320Z"></path></svg>